#tb 0: 1/25
0,          0,          0,        1,   149760, 0xf923a1a0
0,          1,          1,        1,   149760, 0x614d851a
0,          2,          2,        1,   149760, 0xc3976ce4
0,          3,          3,        1,   149760, 0x39925bdc
0,          4,          4,        1,   149760, 0x86067422
0,          5,          5,        1,   149760, 0x60dc6078
0,          6,          6,        1,   149760, 0xac79a412
0,          7,          7,        1,   149760, 0x3b1bab1e
0,          8,          8,        1,   149760, 0x7562555f
0,          9,          9,        1,   149760, 0xf0a2385f
0,         10,         10,        1,   149760, 0xd2661fa6
0,         11,         11,        1,   149760, 0x89b30a0a
0,         12,         12,        1,   149760, 0x3c59f8cb
0,         13,         13,        1,   149760, 0x70e4da0a
0,         14,         14,        1,   149760, 0x5e60caa8
0,         15,         15,        1,   149760, 0x9828a7e0
0,         16,         16,        1,   149760, 0x11e069a1
0,         17,         17,        1,   149760, 0xe98a55c2
0,         18,         18,        1,   149760, 0xaa9f64e5
0,         19,         19,        1,   149760, 0x03c32cea
0,         20,         20,        1,   149760, 0x869e0f6e
0,         21,         21,        1,   149760, 0x54baeff8
0,         22,         22,        1,   149760, 0xf1f8cc04
0,         23,         23,        1,   149760, 0x1724aafb
0,         24,         24,        1,   149760, 0xaf01b9f8
0,         25,         25,        1,   149760, 0xb1b5bbe9
0,         26,         26,        1,   149760, 0xd9e6d5a4
0,         27,         27,        1,   149760, 0x8351ca2d
0,         28,         28,        1,   149760, 0x38dceffe
0,         29,         29,        1,   149760, 0x3bffe1c4
0,         30,         30,        1,   149760, 0x4075b534
0,         31,         31,        1,   149760, 0x0e8fb246
0,         32,         32,        1,   149760, 0x70fceafb
0,         33,         33,        1,   149760, 0x940bec8d
0,         34,         34,        1,   149760, 0x7d34f896
0,         35,         35,        1,   149760, 0x39a1d77f
0,         36,         36,        1,   149760, 0x9755e104
0,         37,         37,        1,   149760, 0xd584cb48
0,         38,         38,        1,   149760, 0x06ecdd44
0,         39,         39,        1,   149760, 0x0226a40d
0,         40,         40,        1,   149760, 0xb53aaf56
0,         41,         41,        1,   149760, 0xdad4a984
0,         42,         42,        1,   149760, 0xa58c9eb0
0,         43,         43,        1,   149760, 0x7330bde6
0,         44,         44,        1,   149760, 0x98fcabd9
0,         45,         45,        1,   149760, 0x9570b74a
0,         46,         46,        1,   149760, 0x3c1eab60
0,         47,         47,        1,   149760, 0x2038a069
0,         48,         48,        1,   149760, 0x672fa347
0,         49,         49,        1,   149760, 0xa7328b16
0,         50,         50,        1,   149760, 0x677b6a87
0,         51,         51,        1,   149760, 0xb036b028
0,         52,         52,        1,   149760, 0x7a7f9966
0,         53,         53,        1,   149760, 0xc34b7c39
0,         54,         54,        1,   149760, 0xb44345ed
0,         55,         55,        1,   149760, 0x90193c4a
0,         56,         56,        1,   149760, 0x90986e7b
0,         57,         57,        1,   149760, 0x5e8e6545
0,         58,         58,        1,   149760, 0x3ac7758e
0,         59,         59,        1,   149760, 0x4dd271fb
